# xmcd
#
# Track frame offsets:
#	150
#	14044
#	29080
#	41313
#	56184
#	69567
#	82492
#	96572
#	109417
#	122767
#	136310
#	160324
#	185044
#	198615
#	211328
#	224326
#	237024
#	250176
#	264144
#	277181
#	291004
#	306372
#	319861
#	330925
#
# Disc length: 4614 seconds
#
# Revision: 0
# Processed by: cddbd v1.5.1PL0 Copyright (c) Steve Scherf et al.
# Submitted via: dBpowerAMP V4.0
#
DISCID=80120418
DTITLE=Billy Cotton - Wakey Wakey
DYEAR=1900
DGENRE=Blues
TTITLE0=After You've Gone
TTITLE1=What a Difference a Day Made
TTITLE2=Shine
TTITLE3=Hyde Park Corner
TTITLE4=Bessie Coudn't Help
TTITLE5=Avalon
TTITLE6=Madam-Ah! La Marquise-Ah!
TTITLE7=The New Tiger Rag
TTITLE8=I took my harp to a party
TTITLE9=They all start whistling mary
TTITLE10=she was only somebody's daughter
TTITLE11=the tattooed lady
TTITLE12=crying for the carolines
TTITLE13=nobody loves a fairy when she's forty
TTITLE14=truckin'
TTITLE15=rolling round the world
TTITLE16=i like bananas
TTITLE17=I've gone and lost my little yoyo
TTITLE18=ain't it nice?
TTITLE19='s wonderful
TTITLE20=day in, day out
TTITLE21=dancing with my shadow
TTITLE22=i'll never say never again, again
TTITLE23=somewhere in france with you
EXTD=
EXTT0=
EXTT1=
EXTT2=
EXTT3=
EXTT4=
EXTT5=
EXTT6=
EXTT7=
EXTT8=
EXTT9=
EXTT10=
EXTT11=
EXTT12=
EXTT13=
EXTT14=
EXTT15=
EXTT16=
EXTT17=
EXTT18=
EXTT19=
EXTT20=
EXTT21=
EXTT22=
EXTT23=
PLAYORDER=
